<svg xmlns="http://www.w3.org/2000/svg" width="15.82" height="18.359" viewBox="0 0 15.82 18.359">
  <path id="Path_606" data-name="Path 606" d="M15.82-2.5V-14.18H6.68V-2.5Zm0-13.32a1.641,1.641,0,0,1,1.172.488A1.547,1.547,0,0,1,17.5-14.18V-2.5a1.61,1.61,0,0,1-.508,1.172A1.61,1.61,0,0,1,15.82-.82H6.68a1.61,1.61,0,0,1-1.172-.508A1.61,1.61,0,0,1,5-2.5V-14.18a1.547,1.547,0,0,1,.508-1.152A1.641,1.641,0,0,1,6.68-15.82Zm-2.5-3.359v1.68h-10V-5.82H1.68V-17.5a1.641,1.641,0,0,1,.488-1.172A1.547,1.547,0,0,1,3.32-19.18Z" transform="translate(-1.68 19.18)" fill="#8e8f9b"/>
</svg>
