<svg id="Buttons_Call" data-name="Buttons / Call" xmlns="http://www.w3.org/2000/svg" width="36" height="36" viewBox="0 0 36 36">
  <rect id="bg" width="36" height="36" rx="10" fill="rgba(50,114,178,0.1)"/>
  <path id="Icon" d="M-1.406-9.406A1.922,1.922,0,0,1,0-10a1.922,1.922,0,0,1,1.406.594A1.922,1.922,0,0,1,2-8a1.922,1.922,0,0,1-.594,1.406A1.922,1.922,0,0,1,0-6a1.922,1.922,0,0,1-1.406-.594A1.922,1.922,0,0,1-2-8,1.922,1.922,0,0,1-1.406-9.406Zm-.969,3.781A3.3,3.3,0,0,0,0-4.656a3.218,3.218,0,0,0,2.359-.984A3.218,3.218,0,0,0,3.344-8a3.218,3.218,0,0,0-.984-2.359A3.218,3.218,0,0,0,0-11.344a3.218,3.218,0,0,0-2.359.984A3.218,3.218,0,0,0-3.344-8,3.3,3.3,0,0,0-2.375-5.625Zm-2.094-6A7.709,7.709,0,0,1,0-13a7.709,7.709,0,0,1,4.469,1.375A7.688,7.688,0,0,1,7.344-8,7.688,7.688,0,0,1,4.469-4.375,7.709,7.709,0,0,1,0-3,7.709,7.709,0,0,1-4.469-4.375,7.688,7.688,0,0,1-7.344-8,7.688,7.688,0,0,1-4.469-11.625Z" transform="translate(18 26)" fill="#004f9f"/>
</svg>
